<?xml version="1.0" encoding="UTF-8"?>
<svg width="128" height="128" viewBox="0 0 128 128" xmlns="http://www.w3.org/2000/svg">
  <!-- 背景圆形 -->
  <circle cx="64" cy="64" r="60" fill="#007ACC" stroke="#005A9E" stroke-width="2"/>
  
  <!-- Git图标 -->
  <g transform="translate(20, 35)">
    <!-- Git分支线 -->
    <path d="M15 10 L15 45 M35 10 L35 30 L15 30" stroke="white" stroke-width="3" fill="none" stroke-linecap="round"/>
    <!-- Git节点 -->
    <circle cx="15" cy="10" r="4" fill="white"/>
    <circle cx="35" cy="10" r="4" fill="white"/>
    <circle cx="15" cy="30" r="4" fill="white"/>
    <circle cx="15" cy="45" r="4" fill="white"/>
  </g>
  
  <!-- AI/魔法棒图标 -->
  <g transform="translate(65, 25)">
    <!-- 魔法棒 -->
    <path d="M5 35 L35 5" stroke="#FFD700" stroke-width="4" stroke-linecap="round"/>
    <!-- 星星装饰 -->
    <g fill="#FFD700">
      <path d="M8 32 L10 28 L12 32 L16 30 L12 34 L10 38 L8 34 L4 36 Z"/>
      <path d="M32 8 L34 4 L36 8 L40 6 L36 10 L34 14 L32 10 L28 12 Z"/>
      <circle cx="25" cy="15" r="2"/>
      <circle cx="15" cy="25" r="1.5"/>
      <circle cx="40" cy="25" r="1"/>
    </g>
  </g>
  
  <!-- 底部文字提示 -->
  <text x="64" y="105" text-anchor="middle" fill="white" font-family="Arial, sans-serif" font-size="12" font-weight="bold">
    AI Commit
  </text>
</svg>
